<svg id="visual" viewBox="0 0 960 540" width="960" height="540" xmlns="http://www.w3.org/2000/svg" xmlns:xlink="http://www.w3.org/1999/xlink" version="1.1"><rect x="0" y="0" width="960" height="540" fill="#f5f5dc"></rect><defs><linearGradient id="grad1_0" x1="43.8%" y1="100%" x2="100%" y2="0%"><stop offset="14.444444444444446%" stop-color="#f5f5dc" stop-opacity="1"></stop><stop offset="85.55555555555554%" stop-color="#f5f5dc" stop-opacity="1"></stop></linearGradient></defs><defs><linearGradient id="grad2_0" x1="0%" y1="100%" x2="56.3%" y2="0%"><stop offset="14.444444444444446%" stop-color="#f5f5dc" stop-opacity="1"></stop><stop offset="85.55555555555554%" stop-color="#f5f5dc" stop-opacity="1"></stop></linearGradient></defs><g transform="translate(960, 540)"><path d="M-243 0C-242.2 -36.8 -241.5 -73.5 -218 -90.3C-194.6 -107.1 -148.4 -103.9 -127.3 -127.3C-106.1 -150.7 -110 -200.8 -93 -224.5C-75.9 -248.2 -38 -245.6 0 -243L0 0Z" fill="#0C090A"></path></g><g transform="translate(0, 0)"><path d="M243 0C212.8 20.3 182.6 40.5 175.5 72.7C168.4 104.9 184.4 149.1 171.8 171.8C159.2 194.6 118 195.9 84.6 204.2C51.2 212.5 25.6 227.7 0 243L0 0Z" fill="#0C090A"></path></g></svg>