<svg id="visual" viewBox="0 0 960 540" width="960" height="540" xmlns="http://www.w3.org/2000/svg" xmlns:xlink="http://www.w3.org/1999/xlink" version="1.1"><rect x="0" y="0" width="960" height="540" fill="#f5f5dc"></rect><defs><linearGradient id="grad1_0" x1="43.8%" y1="0%" x2="100%" y2="100%"><stop offset="14.444444444444446%" stop-color="#f5f5dc" stop-opacity="1"></stop><stop offset="85.55555555555554%" stop-color="#f5f5dc" stop-opacity="1"></stop></linearGradient></defs><defs><linearGradient id="grad2_0" x1="0%" y1="0%" x2="56.3%" y2="100%"><stop offset="14.444444444444446%" stop-color="#f5f5dc" stop-opacity="1"></stop><stop offset="85.55555555555554%" stop-color="#f5f5dc" stop-opacity="1"></stop></linearGradient></defs><g transform="translate(960, 0)"><path d="M0 243C-25.9 241.2 -51.7 239.4 -75.1 231.1C-98.5 222.8 -119.3 208.1 -139.9 192.5C-160.4 177 -180.7 160.7 -192.5 139.9C-204.4 119.1 -207.9 93.9 -214.9 69.8C-222 45.8 -232.5 22.9 -243 0L0 0Z" fill="#0C090A"></path></g><g transform="translate(0, 540)"><path d="M0 -243C26.1 -239.8 52.2 -236.5 73.2 -225.4C94.3 -214.3 110.2 -195.3 132.3 -182C154.3 -168.7 182.5 -161.1 196.6 -142.8C210.6 -124.6 210.5 -95.7 215.9 -70.1C221.3 -44.6 232.1 -22.3 243 0L0 0Z" fill="#0C090A"></path></g></svg>