<svg id="visual" viewBox="0 0 960 540" width="960" height="540" xmlns="http://www.w3.org/2000/svg" xmlns:xlink="http://www.w3.org/1999/xlink" version="1.1"><rect x="0" y="0" width="960" height="540" fill="#f5f5dc"></rect><path d="M0 54L32 59C64 64 128 74 192 78.8C256 83.7 320 83.3 384 80.7C448 78 512 73 576 69.3C640 65.7 704 63.3 768 63.5C832 63.7 896 66.3 928 67.7L960 69L960 0L928 0C896 0 832 0 768 0C704 0 640 0 576 0C512 0 448 0 384 0C320 0 256 0 192 0C128 0 64 0 32 0L0 0Z" fill="#0C090A"></path><path d="M0 25L32 29.3C64 33.7 128 42.3 192 45.2C256 48 320 45 384 44.2C448 43.3 512 44.7 576 44.5C640 44.3 704 42.7 768 39.2C832 35.7 896 30.3 928 27.7L960 25L960 0L928 0C896 0 832 0 768 0C704 0 640 0 576 0C512 0 448 0 384 0C320 0 256 0 192 0C128 0 64 0 32 0L0 0Z" fill="#0a0f1d"></path><path d="M0 54L32 49.5C64 45 128 36 192 34.5C256 33 320 39 384 39.2C448 39.3 512 33.7 576 34.7C640 35.7 704 43.3 768 47.8C832 52.3 896 53.7 928 54.3L960 55L960 0L928 0C896 0 832 0 768 0C704 0 640 0 576 0C512 0 448 0 384 0C320 0 256 0 192 0C128 0 64 0 32 0L0 0Z" fill="#100c18"></path><path d="M0 36L32 34.5C64 33 128 30 192 26.8C256 23.7 320 20.3 384 21C448 21.7 512 26.3 576 30C640 33.7 704 36.3 768 36.3C832 36.3 896 33.7 928 32.3L960 31L960 0L928 0C896 0 832 0 768 0C704 0 640 0 576 0C512 0 448 0 384 0C320 0 256 0 192 0C128 0 64 0 32 0L0 0Z" fill="#120a13"></path><path d="M0 10L32 11.2C64 12.3 128 14.7 192 16.8C256 19 320 21 384 22C448 23 512 23 576 21.8C640 20.7 704 18.3 768 17.3C832 16.3 896 16.7 928 16.8L960 17L960 0L928 0C896 0 832 0 768 0C704 0 640 0 576 0C512 0 448 0 384 0C320 0 256 0 192 0C128 0 64 0 32 0L0 0Z" fill="#10090e"></path><path d="M0 22L32 19.2C64 16.3 128 10.7 192 8.2C256 5.7 320 6.3 384 9.3C448 12.3 512 17.7 576 18.7C640 19.7 704 16.3 768 14.3C832 12.3 896 11.7 928 11.3L960 11L960 0L928 0C896 0 832 0 768 0C704 0 640 0 576 0C512 0 448 0 384 0C320 0 256 0 192 0C128 0 64 0 32 0L0 0Z" fill="#0c090a"></path></svg>