<svg id="visual" viewBox="0 0 960 540" width="960" height="540" xmlns="http://www.w3.org/2000/svg" xmlns:xlink="http://www.w3.org/1999/xlink" version="1.1"><rect x="0" y="0" width="960" height="540" fill="#f5f5dc"></rect><path d="M0 496L22.8 498C45.7 500 91.3 504 137 494.2C182.7 484.3 228.3 460.7 274 455.8C319.7 451 365.3 465 411.2 467.8C457 470.7 503 462.3 548.8 458.8C594.7 455.3 640.3 456.7 686 460.3C731.7 464 777.3 470 823 474.2C868.7 478.3 914.3 480.7 937.2 481.8L960 483L960 541L937.2 541C914.3 541 868.7 541 823 541C777.3 541 731.7 541 686 541C640.3 541 594.7 541 548.8 541C503 541 457 541 411.2 541C365.3 541 319.7 541 274 541C228.3 541 182.7 541 137 541C91.3 541 45.7 541 22.8 541L0 541Z" fill="#0C090A"></path><path d="M0 490L22.8 495.3C45.7 500.7 91.3 511.3 137 513C182.7 514.7 228.3 507.3 274 501.3C319.7 495.3 365.3 490.7 411.2 493.3C457 496 503 506 548.8 511.5C594.7 517 640.3 518 686 514.7C731.7 511.3 777.3 503.7 823 503.5C868.7 503.3 914.3 510.7 937.2 514.3L960 518L960 541L937.2 541C914.3 541 868.7 541 823 541C777.3 541 731.7 541 686 541C640.3 541 594.7 541 548.8 541C503 541 457 541 411.2 541C365.3 541 319.7 541 274 541C228.3 541 182.7 541 137 541C91.3 541 45.7 541 22.8 541L0 541Z" fill="#0a0f1d"></path><path d="M0 528L22.8 526C45.7 524 91.3 520 137 517.3C182.7 514.7 228.3 513.3 274 515.7C319.7 518 365.3 524 411.2 525.8C457 527.7 503 525.3 548.8 516C594.7 506.7 640.3 490.3 686 489.7C731.7 489 777.3 504 823 509.3C868.7 514.7 914.3 510.3 937.2 508.2L960 506L960 541L937.2 541C914.3 541 868.7 541 823 541C777.3 541 731.7 541 686 541C640.3 541 594.7 541 548.8 541C503 541 457 541 411.2 541C365.3 541 319.7 541 274 541C228.3 541 182.7 541 137 541C91.3 541 45.7 541 22.8 541L0 541Z" fill="#100c18"></path><path d="M0 508L22.8 509.8C45.7 511.7 91.3 515.3 137 518.5C182.7 521.7 228.3 524.3 274 523C319.7 521.7 365.3 516.3 411.2 516.7C457 517 503 523 548.8 521.7C594.7 520.3 640.3 511.7 686 507.7C731.7 503.7 777.3 504.3 823 504.2C868.7 504 914.3 503 937.2 502.5L960 502L960 541L937.2 541C914.3 541 868.7 541 823 541C777.3 541 731.7 541 686 541C640.3 541 594.7 541 548.8 541C503 541 457 541 411.2 541C365.3 541 319.7 541 274 541C228.3 541 182.7 541 137 541C91.3 541 45.7 541 22.8 541L0 541Z" fill="#120a13"></path><path d="M0 499L22.8 499.5C45.7 500 91.3 501 137 500.8C182.7 500.7 228.3 499.3 274 500.2C319.7 501 365.3 504 411.2 504.2C457 504.3 503 501.7 548.8 502C594.7 502.3 640.3 505.7 686 510.7C731.7 515.7 777.3 522.3 823 521.5C868.7 520.7 914.3 512.3 937.2 508.2L960 504L960 541L937.2 541C914.3 541 868.7 541 823 541C777.3 541 731.7 541 686 541C640.3 541 594.7 541 548.8 541C503 541 457 541 411.2 541C365.3 541 319.7 541 274 541C228.3 541 182.7 541 137 541C91.3 541 45.7 541 22.8 541L0 541Z" fill="#10090e"></path><path d="M0 521L22.8 523.7C45.7 526.3 91.3 531.7 137 530.2C182.7 528.7 228.3 520.3 274 520.2C319.7 520 365.3 528 411.2 528C457 528 503 520 548.8 518.5C594.7 517 640.3 522 686 526.2C731.7 530.3 777.3 533.7 823 532.3C868.7 531 914.3 525 937.2 522L960 519L960 541L937.2 541C914.3 541 868.7 541 823 541C777.3 541 731.7 541 686 541C640.3 541 594.7 541 548.8 541C503 541 457 541 411.2 541C365.3 541 319.7 541 274 541C228.3 541 182.7 541 137 541C91.3 541 45.7 541 22.8 541L0 541Z" fill="#0c090a"></path></svg>