<svg id="visual" viewBox="0 0 960 540" width="960" height="540" xmlns="http://www.w3.org/2000/svg" xmlns:xlink="http://www.w3.org/1999/xlink" version="1.1"><rect x="0" y="0" width="960" height="540" fill="#f5f5dc"></rect><path d="M0 15L26.7 14.7C53.3 14.3 106.7 13.7 160 14.8C213.3 16 266.7 19 320 23.5C373.3 28 426.7 34 480 36.8C533.3 39.7 586.7 39.3 640 37.7C693.3 36 746.7 33 800 32.8C853.3 32.7 906.7 35.3 933.3 36.7L960 38L960 0L933.3 0C906.7 0 853.3 0 800 0C746.7 0 693.3 0 640 0C586.7 0 533.3 0 480 0C426.7 0 373.3 0 320 0C266.7 0 213.3 0 160 0C106.7 0 53.3 0 26.7 0L0 0Z" fill="#0C090A" stroke-linecap="round" stroke-linejoin="miter"></path></svg>